<svg width="112" height="112" viewBox="0 0 112 112" fill="none" xmlns="http://www.w3.org/2000/svg">
<path d="M40.6089 21.0523C39.949 18.8855 40.3324 17.0637 41.759 15.5869L55.7446 1.10865C56.3051 0.528468 57.0001 0.231198 57.8296 0.216841C58.6591 0.202488 59.364 0.475532 59.9442 1.03598L111.053 50.406C111.633 50.9664 111.931 51.6614 111.945 52.491C111.959 53.3205 111.686 54.0254 111.126 54.6056L97.2931 68.9256C96.7326 69.5058 96.0376 69.803 95.2081 69.8174C94.3785 69.8317 93.6737 69.5587 93.0935 68.9983L68.5675 45.3068L74.3813 62.0873C74.5976 62.6022 74.6629 63.379 74.5772 64.4177C74.4914 65.4565 74.0155 66.4241 73.1493 67.3208L67.9525 72.7007C67.0864 73.5973 66.1357 74.1065 65.1006 74.2281C64.0654 74.3498 63.2868 74.3114 62.7648 74.113L45.7931 68.8833L70.3191 92.5748C70.8993 93.1353 71.1965 93.8303 71.2109 94.6598C71.2253 95.4894 70.9522 96.1942 70.3918 96.7744L56.559 111.094C55.9985 111.675 55.3036 111.972 54.474 111.986C53.6445 112.001 52.9396 111.728 52.3594 111.167L1.25044 61.7971C0.670256 61.2367 0.372986 60.5417 0.358628 59.7121C0.344271 58.8826 0.617314 58.1777 1.17776 57.5975L15.1634 43.1193C16.59 41.6424 18.3974 41.1963 20.5858 41.7807L49.5852 49.7583L40.6089 21.0523Z" fill="black"/>
</svg>
